<?xml version="1.0" encoding="UTF-8"?>
<svg id="Layer_3" xmlns="http://www.w3.org/2000/svg" version="1.1" viewBox="0 0 39 39">
  <!-- Generator: Adobe Illustrator 29.3.0, SVG Export Plug-In . SVG Version: 2.1.0 Build 146)  -->
  <defs>
    <style>
      .st0 {
        fill: #3a272d;
      }
    </style>
  </defs>
  <path class="st0" d="M36.4,38.5H2.5c-1.1-.5-1.7-1.1-2.1-2.2V2.6C1,1.3,1.8.6,3.2.5h32.8c1.4.1,2.5,1.2,2.5,2.5,0,11.2.2,22.4-.1,33.6-.3,1-1.1,1.4-1.9,1.9ZM12.2,9c0-1.8-1.5-3.3-3.3-3.3s-3.3,1.5-3.3,3.3,1.5,3.3,3.3,3.3,3.3-1.5,3.3-3.3ZM32.8,32.8v-12.5c0-1.7-1.3-4.3-2.8-5.2-3-1.7-7.4-1.1-9.3,2v-2.3l-.2-.2h-5l-.2.2v18h5.5v-9.7c0-.6.4-2.1.8-2.7,1.1-1.6,4.2-1.8,5.1.1.1.2.5,1.1.5,1.3v10.7l.2.2h5.4ZM11.8,14.7h-5.6v18.2h5.6V14.7Z"/>
</svg>