<?xml version="1.0" encoding="UTF-8"?>
<svg id="Layer_3" xmlns="http://www.w3.org/2000/svg" version="1.1" viewBox="0 0 39 39">
  <!-- Generator: Adobe Illustrator 29.3.0, SVG Export Plug-In . SVG Version: 2.1.0 Build 146)  -->
  <defs>
    <style>
      .st0 {
        fill: #3a272d;
      }
    </style>
  </defs>
  <path class="st0" d="M34.5,32.3c-2.1,2.5-5.8,4-8.9,4h-2.9c-4,0-5.7-1.8-5.7-6v-4.1h5.5c1.7,0,3.3,1.1,3.8,2.8,0,0,0,0,0,0h.6v-8.3h-.6s0,0,0,0h0c-2.1,2.1-5.1,3-7.9,3h-1.5v-3.7c0-3.1,2.1-5.1,5.5-5.1h2.8c2.7,0,5.6,1.4,7.4,3.5l.7-.4-1.2-5.4H10.8v.8c3.1,1.2,4.5,2.4,4.5,6.1v4.2h0c-.5,0-.6,0-.6,0-2.8-.4-4.6-1.9-4.6-5.2V7c0-3.4,1.9-4.9,5.2-5.8V.5H3.8v.8c3.2,1,4.5,2.4,4.5,5.8v12.4c0,3.6-1.2,4.9-4.5,6v.8h11.5v5.3c0,3.5-1.3,5.1-4.5,6.2v.8h21.6l2.8-5.8-.6-.4Z"/>
</svg>