<?xml version="1.0" encoding="UTF-8"?>
<svg id="Layer_3" xmlns="http://www.w3.org/2000/svg" version="1.1" viewBox="0 0 39 39">
  <!-- Generator: Adobe Illustrator 29.3.0, SVG Export Plug-In . SVG Version: 2.1.0 Build 146)  -->
  <defs>
    <style>
      .st0 {
        fill: #3a272d;
      }
    </style>
  </defs>
  <path class="st0" d="M38.5,2.6v33.9c-.4,1.1-1,1.6-2.1,2.1H2.6c-1.3-.5-1.9-1.3-2.1-2.7V3.2C.6,1.5,1.6.7,3.2.5h32.6c1.4.1,2.2.8,2.7,2.1ZM13,5.2c-4.8.4-7.5,3.4-7.8,8.1-.2,3.5-.2,8.8,0,12.3.3,5.2,3.4,7.9,8.5,8.2,3.3.2,12.1.4,15-.6s4.9-4.1,5.2-7.5c.3-3.5.2-8.6,0-12.1-.3-5-2.9-8.1-8-8.5-3.6-.2-9.2-.2-12.8,0Z"/>
  <g>
    <path class="st0" d="M15.6,7.7c3.3-.1,7.2-.2,10.4,0,3.1.3,4.9,2.2,5.2,5.3.2,2.8.2,6.7.1,9.5-.1,4.5-.2,8.2-5.7,8.6-2.7.2-6.2.2-9,.1-4.1-.1-8.3,0-8.9-5.2-.4-3.8-.4-9.4,0-13.2.4-4.8,3.9-5.1,7.8-5.3ZM28.9,11.8c0-.9-.8-1.7-1.7-1.7s-1.7.8-1.7,1.7.8,1.7,1.7,1.7,1.7-.8,1.7-1.7ZM26.9,19.5c0-4.1-3.3-7.4-7.4-7.4s-7.4,3.3-7.4,7.4,3.3,7.4,7.4,7.4,7.4-3.3,7.4-7.4Z"/>
    <circle class="st0" cx="19.5" cy="19.5" r="4.8"/>
  </g>
</svg>