<?xml version="1.0" encoding="UTF-8"?>
<svg id="Icons_Black" data-name="Icons Black" xmlns="http://www.w3.org/2000/svg" viewBox="0 0 500 500">
  <path d="M167.52,176.94h-.3c-4.87,20.39-17.04,56-26.18,83.7h53.27c-6.39-20.09-20.7-62.4-26.79-83.7Z" style="fill: #f9eff1;"/>
  <path d="M97.77,495h304.45c51.24,0,92.77-41.54,92.77-92.77V97.77c0-51.24-41.54-92.77-92.77-92.77H97.77C46.54,5,5,46.54,5,97.77v304.45c0,51.24,41.54,92.77,92.77,92.77ZM275.87,198.55c0-1.83.61-2.13,2.43-2.13h31.96c1.83,0,2.13.61,2.13,2.13v88.57c0,18.87,8.22,30.44,26.48,30.44,11.57,0,20.09-3.96,27.7-10.96v-108.05c0-1.52.61-2.13,2.44-2.13h31.96c1.83,0,2.13.61,2.13,2.13v114.44c0,15.83,1.22,24.96,1.83,31.35.3,1.52-.61,2.13-2.44,2.13h-28c-2.13,0-2.74-.61-3.04-1.83-.91-3.04-1.83-7.61-2.13-10.65-13.09,12.18-28.61,15.52-42.31,15.52-28.92,0-51.13-15.52-51.13-58.14v-92.83ZM78.64,343.43l62.7-178.36c1.22-3.04,2.13-6.09,2.74-16.44,0-1.22.61-2.13,1.83-2.13h42.31c1.52,0,1.83.3,2.13,1.83l70.31,195.41c.3,1.83,0,2.74-1.83,2.74h-34.09c-1.52,0-2.43-.61-3.04-1.83l-17.65-50.83h-72.75l-16.74,50.22c-.61,1.83-1.52,2.44-3.35,2.44h-30.44c-1.83,0-2.44-.91-2.13-3.04Z" style="fill: #f9eff1;"/>
</svg>