<?xml version="1.0" encoding="UTF-8"?>
<svg id="Icons_Black" data-name="Icons Black" xmlns="http://www.w3.org/2000/svg" viewBox="0 0 500 500">
  <path d="M402.23,5H97.77C46.54,5,5,46.54,5,97.77v304.45c0,51.24,41.54,92.77,92.77,92.77h304.45c51.24,0,92.77-41.54,92.77-92.77V97.77c0-51.24-41.54-92.77-92.77-92.77ZM271.31,315.43l-5.17,28.61c-.3,2.13-1.22,2.44-2.74,2.44h-117.49c-2.43,0-3.04-.91-3.04-3.04v-194.19c0-1.52.61-2.74,2.43-2.74h32.57c1.22,0,1.83.91,1.83,2.13v164.67h89.49c1.83,0,2.43.91,2.13,2.13ZM379.36,227.77c0,1.52-.61,2.13-2.74,2.13-21.61-.61-39.57,7-46.57,16.13v98.01c0,1.83-.91,2.44-2.74,2.44h-31.65c-2.13,0-2.74-.91-2.74-2.44v-105.01c0-13.09-.3-30.74-1.52-40.79,0-1.52.3-1.83,1.83-1.83h28.61c1.83,0,2.74.61,3.35,2.44,1.52,3.96,2.74,11.57,3.04,18.26,10.35-12.78,27.7-23.74,48.7-23.74,1.83,0,2.44.3,2.44,2.13v32.26Z" style="fill: #482d84; stroke-width: 0px;"/>
</svg>