<?xml version="1.0" encoding="UTF-8"?>
<svg id="Icons_Black" data-name="Icons Black" xmlns="http://www.w3.org/2000/svg" viewBox="0 0 500 500">
  <path d="M296.87,270.99c0,33.18,19.78,46.87,44.13,46.87,6.09,0,12.18-.61,17.65-2.43v-89.18c-3.96-1.52-8.83-2.13-14.3-2.13-27.09,0-47.48,17.35-47.48,46.87Z" style="fill: #f9eff1;"/>
  <path d="M402.23,5H97.77C46.54,5,5,46.54,5,97.77v304.45c0,51.24,41.54,92.77,92.77,92.77h304.45c51.24,0,92.77-41.54,92.77-92.77V97.77c0-51.24-41.54-92.77-92.77-92.77ZM252.13,346.47h-37.44c-2.44,0-3.65-.61-4.57-2.44-14.61-24.96-29.52-50.22-44.44-76.4h-.3c-13.7,25.57-28,51.44-42.31,76.4-.91,1.83-1.83,2.44-3.65,2.44h-35.61c-2.13,0-2.13-1.83-1.22-3.04l59.66-97.4-58.44-96.79c-.91-1.52,0-2.74,1.52-2.74h37.13c1.83,0,2.74.3,3.65,2.13,13.39,25.26,28.61,50.22,42.31,75.48h.3c13.39-25.26,27.7-50.22,41.7-75.18.61-1.52,1.52-2.44,3.65-2.44h34.09c1.83,0,2.13,1.22,1.22,3.04l-57.53,94.05,61.48,99.83c1.22,1.52.3,2.74-1.22,3.04ZM394.57,337.65c-19.78,8.52-39.26,11.87-57.53,11.87-44.13,0-77.92-25.57-77.92-76.7,0-44.13,32.87-79.44,86.44-79.44,4.26,0,7.91.3,13.09.91v-62.4c0-1.52.61-2.13,1.83-2.13h33.18c1.52,0,1.52.61,1.52,1.83v183.84c0,6.09.61,14,1.22,19.48,0,1.52-.3,2.13-1.83,2.74Z" style="fill: #f9eff1;"/>
</svg>