<?xml version="1.0" encoding="UTF-8"?>
<svg id="Icons_Black" data-name="Icons Black" xmlns="http://www.w3.org/2000/svg" viewBox="0 0 500 500">
  <path d="M194.3,177.85c-10.65,0-19.17.3-22.52.61v70.61c5.18.3,9.13.3,19.18.3,25.57,0,47.18-8.52,47.18-36.22,0-22.22-15.83-35.31-43.83-35.31Z" style="fill: #f9eff1;"/>
  <path d="M402.23,5H97.77C46.54,5,5,46.54,5,97.77v304.45c0,51.24,41.54,92.77,92.77,92.77h304.45c51.24,0,92.77-41.54,92.77-92.77V97.77c0-51.24-41.54-92.77-92.77-92.77ZM190.95,281.64h-19.18v62.4c0,1.52-.61,2.44-2.43,2.44h-31.96c-1.52,0-2.44-.61-2.44-2.13v-195.1c0-1.52.61-2.44,2.13-2.44,11.57-.3,34.09-.91,56.31-.91,59.05,0,80.96,32.87,80.96,66.35,0,48.4-37.44,69.4-83.4,69.4ZM387.27,227.77c0,1.52-.61,2.13-2.74,2.13-21.61-.61-39.57,7-46.57,16.13v98.01c0,1.83-.91,2.44-2.74,2.44h-31.65c-2.13,0-2.74-.91-2.74-2.44v-105.01c0-13.09-.3-30.74-1.52-40.79,0-1.52.3-1.83,1.83-1.83h28.61c1.83,0,2.74.61,3.35,2.44,1.52,3.96,2.74,11.57,3.04,18.26,10.35-12.78,27.7-23.74,48.7-23.74,1.83,0,2.44.3,2.44,2.13v32.26Z" style="fill: #f9eff1;"/>
</svg>