<?xml version="1.0" encoding="UTF-8"?>
<svg id="Icons_Black" data-name="Icons Black" xmlns="http://www.w3.org/2000/svg" viewBox="0 0 500 500">
  <path d="M402.23,5H97.77C46.54,5,5,46.54,5,97.77v304.45c0,51.24,41.54,92.77,92.77,92.77h304.45c51.24,0,92.77-41.54,92.77-92.77V97.77c0-51.24-41.54-92.77-92.77-92.77ZM186.54,343.73c0,2.13-.61,2.74-2.44,2.74h-31.96c-1.83,0-2.43-.91-2.43-2.74v-194.8c0-2.13.91-2.44,2.43-2.44h31.96c1.83,0,2.44.61,2.44,2.44v194.8ZM352.72,337.65c-19.78,8.52-39.26,11.87-57.53,11.87-44.13,0-77.92-25.57-77.92-76.7,0-44.13,32.87-79.44,86.44-79.44,4.26,0,7.91.3,13.09.91v-62.4c0-1.52.61-2.13,1.83-2.13h33.18c1.52,0,1.52.61,1.52,1.83v183.84c0,6.09.61,14,1.22,19.48,0,1.52-.3,2.13-1.83,2.74Z" style="fill: #f9eff1;"/>
  <path d="M255.02,270.99c0,33.18,19.78,46.87,44.13,46.87,6.09,0,12.17-.61,17.65-2.43v-89.18c-3.96-1.52-8.83-2.13-14.31-2.13-27.09,0-47.48,17.35-47.48,46.87Z" style="fill: #f9eff1;"/>
</svg>