<?xml version="1.0" encoding="UTF-8"?>
<svg id="Icons_Black" data-name="Icons Black" xmlns="http://www.w3.org/2000/svg" viewBox="0 0 500 500">
  <path d="M181.67,177.85c-10.65,0-19.18.3-22.52.61v70.61c5.17.3,9.13.3,19.18.3,25.57,0,47.18-8.52,47.18-36.22,0-22.22-15.83-35.31-43.83-35.31Z" style="fill: #482d84; stroke-width: 0px;"/>
  <path d="M402.23,5H97.77C46.54,5,5,46.54,5,97.77v304.45c0,51.24,41.54,92.77,92.77,92.77h304.45c51.24,0,92.77-41.54,92.77-92.77V97.77c0-51.24-41.54-92.77-92.77-92.77ZM178.32,281.64h-19.18v62.4c0,1.52-.61,2.44-2.44,2.44h-31.96c-1.52,0-2.43-.61-2.43-2.13v-195.1c0-1.52.61-2.44,2.13-2.44,11.57-.3,34.09-.91,56.31-.91,59.05,0,80.96,32.87,80.96,66.35,0,48.4-37.44,69.4-83.4,69.4ZM332.33,349.52c-17.96,0-33.79-3.35-42.92-8.52-1.52-.91-2.13-1.52-2.13-3.35v-28.92c0-1.52,1.22-2.13,2.44-1.52,13.09,8.52,29.83,12.17,43.52,12.17,15.83,0,23.44-5.48,23.44-13.39s-5.78-12.48-24.65-20.09c-33.18-12.18-45.05-25.87-45.05-47.79,0-23.13,18.87-44.74,56.92-44.74,17.65,0,31.05,2.43,38.35,6.09,1.52.91,1.83,2.13,1.83,3.65v26.78c0,1.52-.91,2.44-2.74,1.83-9.44-5.17-24.65-8.83-38.05-8.83-16.13,0-21.61,6.7-21.61,13.09s4.57,11.26,24.05,18.87c34.7,12.78,46.57,26.48,46.57,48.09,0,28.61-22.52,46.57-59.96,46.57Z" style="fill: #482d84; stroke-width: 0px;"/>
</svg>