<?xml version="1.0" encoding="UTF-8"?>
<svg id="Icons_Black" data-name="Icons Black" xmlns="http://www.w3.org/2000/svg" viewBox="0 0 500 500">
  <path d="M402.23,5H97.77C46.54,5,5,46.54,5,97.77v304.45c0,51.24,41.54,92.77,92.77,92.77h304.45c51.24,0,92.77-41.54,92.77-92.77V97.77c0-51.24-41.54-92.77-92.77-92.77ZM115.77,347.08c-19.18,0-47.18,0-56.92-.61-1.22,0-2.13-.91-2.13-2.74v-194.49c0-1.52.3-2.13,2.13-2.44,8.83-.3,29.52-.91,57.53-.91,71.53,0,107.44,40.48,107.44,97.09,0,74.27-56.61,104.1-108.05,104.1ZM462.75,198.55l-43.53,145.49c-.91,1.83-1.22,2.44-3.35,2.44h-33.48c-2.13,0-2.74-.91-3.35-2.74-17.65-67.88-22.83-94.96-25.87-109.88h-.3c-7,30.44-14.61,59.66-28.92,110.18-.61,1.83-1.52,2.44-3.35,2.44h-33.18c-3.04,0-3.35-.61-3.96-2.44l-39.57-145.19c-.61-1.52.3-2.44,2.13-2.44h33.48c1.52,0,2.13.3,2.43,1.83,18.26,71.53,22.83,100.44,24.96,112.62h.61c2.44-10.65,7.61-38.35,27.7-112.01.3-1.83.61-2.44,2.74-2.44h35c1.52,0,2.13.61,2.44,1.83,18.87,74.27,23.13,101.36,25.57,113.53h.61c3.65-18.26,8.22-48.7,25.87-113.53.3-1.22,1.22-1.83,2.74-1.83h30.74c1.22,0,2.44.61,1.83,2.13Z" style="fill: #482d84; stroke-width: 0px;"/>
  <path d="M116.08,177.85c-8.52,0-15.22.3-22.52.61v136.36c6.09.3,12.78.3,20.7.3,42.92,0,71.83-24.96,71.83-71.22s-28.92-66.05-70.01-66.05Z" style="fill: #482d84; stroke-width: 0px;"/>
</svg>