<?xml version="1.0" encoding="UTF-8"?>
<svg id="Icons_Black" data-name="Icons Black" xmlns="http://www.w3.org/2000/svg" viewBox="0 0 500 500">
  <path d="M331.11,2.5c-.02,9.3-.04,18.6-.05,27.9,0,12.62,0,25.24,0,37.87v2.86h-22.86c-.15-2.62-.05-5.32-.07-8.02-.02-2.82,0-5.65,0-8.47v-16.34c-.19-.07-.37-.14-.56-.2-2.61,3.87-5.1,7.81-7.65,11.72-2.58,3.95-5.14,7.91-7.87,12.1-5.28-8.11-10.38-15.95-15.47-23.79-.18.03-.36.07-.54.1-.02,2.1-.05,4.19-.06,6.29-.01,2.24,0,4.48,0,6.73v13.2c0,2.15,0,4.31,0,6.42-1.88.51-17.97.68-22.55.23v-2.84c0-20.93,0-41.85,0-62.78,0-.99-.05-1.99-.08-2.98,8.14,0,16.28,0,24.43,0,.14.38.21.79.42,1.13,4.42,7.29,8.86,14.58,13.31,21.85.2.32.5.57.84.95.35-.49.6-.81.81-1.15,4.35-7.14,8.71-14.28,13.04-21.43.24-.4.34-.9.5-1.35,8.14,0,16.28,0,24.43,0Z" style="fill: #482d84; stroke-width: 0px;"/>
  <path d="M169.6,2.5c.07.82.19,1.64.19,2.46.01,21.17,0,42.34,0,63.51v2.65h-22.88v-22.59h-20.85c-.34,7.45.03,14.96-.21,22.6h-23.02c-.01-22.89-.02-45.76-.03-68.64h22.93v22.64h21.14v-2.55c0-5.96,0-11.92,0-17.88,0-.74-.13-1.47-.2-2.21,7.64,0,15.29,0,22.93,0Z" style="fill: #482d84; stroke-width: 0px;"/>
  <path d="M243.38,2.5v22.86h-20.29v45.8h-22.99c0-15.14,0-30.28,0-45.65h-19.6c-.27-.35-.45-.48-.45-.61,0-7.47.01-14.93.03-22.4h63.31Z" style="fill: #482d84; stroke-width: 0px;"/>
  <path d="M365.5,2.5c-.04.66-.13,1.32-.13,1.98,0,13.86,0,27.72,0,41.59,0,.73.07,1.46.13,2.5h32.23v22.55h-55.12c-.05-.54-.16-1.09-.16-1.64,0-21.83,0-43.66,0-65.49,0-.49.08-.99.13-1.48,7.64,0,15.29,0,22.93,0Z" style="fill: #482d84; stroke-width: 0px;"/>
  <path d="M397.68,456.81c-4.46,1.26-8.75,2.49-13.05,3.68-44.15,12.22-88.3,24.42-132.44,36.69-1.97.55-3.68.34-5.55-.18-47.25-13.11-94.52-26.19-141.78-39.28-2.69-.74-2.65-.76-2.89-3.49-.96-10.91-1.96-21.82-2.92-32.74-.9-10.25-1.75-20.51-2.67-30.76-.91-10.17-1.88-20.33-2.79-30.5-.75-8.35-1.43-16.71-2.18-25.06-.74-8.35-1.53-16.7-2.28-25.05-.57-6.37-1.11-12.73-1.67-19.1-.76-8.52-1.53-17.03-2.29-25.54-.57-6.37-1.12-12.73-1.69-19.1-.6-6.7-1.21-13.39-1.81-20.09-.56-6.28-1.1-12.57-1.66-18.85-.77-8.68-1.56-17.36-2.34-26.04-.56-6.28-1.1-12.57-1.66-18.85-.77-8.6-1.55-17.19-2.31-25.79-.57-6.37-1.12-12.73-1.68-19.1-.6-6.7-1.21-13.39-1.8-20.09-.26-2.96-.48-5.92-.71-8.68.29-.27.34-.34.41-.39.07-.05.14-.1.22-.11.41-.07.81-.19,1.22-.19,119.04-.01,238.08-.01,357.12-.01.41,0,.83.05,1.24.11.15.02.29.14.79.41-5.43,61.16-10.86,122.47-16.33,183.78-5.47,61.34-10.97,122.68-16.48,184.31ZM186.22,208.95c1.52,0,2.59,0,3.65,0,21.27.04,42.53.11,63.8.12,33.73.02,67.46,0,101.18,0,.5,0,1,0,1.5,0,2.95-.02,3.1-.18,3.31-3.02.18-2.4.37-4.8.59-7.2.98-10.66,1.83-21.33,3.02-31.97.5-4.51-.29-3.87-3.7-3.87-37.88.03-75.76.09-113.64.12-35.31.02-70.61,0-105.92.01-1.21,0-2.42.13-3.58.19-.3,2.83,11.78,134.83,12.5,136.87.69.03,1.43.1,2.16.1,34.47.12,68.93.25,103.4.35,15.7.04,31.4,0,47.1.02,1.05,0,2.1.12,3.43.19,0,1.02.06,1.82,0,2.62-.36,4.22-.74,8.43-1.13,12.65-.59,6.45-1.21,12.89-1.8,19.34-.64,6.94-1.24,13.89-1.89,20.82-.25,2.59-.29,2.61-2.75,3.27-15.28,4.1-30.56,8.17-45.83,12.3-1.25.34-2.37.39-3.63.05-15.21-4.1-30.43-8.14-45.64-12.21-2.8-.75-2.83-.78-3.08-3.62-.89-10.17-1.77-20.34-2.63-30.52-.24-2.81-.27-2.91-3.1-2.91-13.37,0-26.75,0-40.12,0-.88,0-1.76.14-2.82.22.06,1.25.07,2.23.15,3.21.42,4.63.87,9.26,1.29,13.89.74,8.27,1.44,16.54,2.18,24.81.78,8.76,1.6,17.53,2.36,26.29.26,3.04.21,3.04,3.13,3.86.08.02.16.03.24.06,28.98,8.09,57.97,16.16,86.93,24.3,2.01.56,3.82.54,5.81-.02,14.75-4.15,29.52-8.21,44.29-12.3,14.45-4,28.89-8,43.34-12.01,2.47-.68,2.57-.78,2.81-3.36.4-4.38.75-8.76,1.13-13.15.54-6.2,1.09-12.4,1.65-18.6.61-6.78,1.23-13.55,1.84-20.33.56-6.2,1.1-12.4,1.66-18.6.6-6.61,1.22-13.22,1.81-19.83.56-6.28,1.07-12.57,1.64-18.85.75-8.26,1.54-16.53,2.29-24.79.07-.79,0-1.6,0-2.77-27.68,0-55.07-.02-82.45,0-27.38.03-54.75.15-82.32.05-1.39-15.34-2.74-30.35-4.14-45.79Z" style="fill: #482d84; stroke-width: 0px;"/>
</svg>