<?xml version="1.0" encoding="UTF-8"?>
<svg id="Icons_Black" data-name="Icons Black" xmlns="http://www.w3.org/2000/svg" viewBox="0 0 500 500">
  <path d="M208.91,176.94c-4.87,20.39-17.04,56-26.18,83.7h53.27c-6.39-20.09-20.7-62.4-26.78-83.7h-.3Z" style="fill: #f9eff1;"/>
  <path d="M402.23,5H97.77C46.54,5,5,46.54,5,97.77v304.45c0,51.24,41.54,92.77,92.77,92.77h304.45c51.24,0,92.77-41.54,92.77-92.77V97.77c0-51.24-41.54-92.77-92.77-92.77ZM300.53,346.47h-34.09c-1.52,0-2.44-.61-3.04-1.83l-17.65-50.83h-72.75l-16.74,50.22c-.61,1.83-1.52,2.44-3.35,2.44h-30.44c-1.83,0-2.44-.91-2.13-3.04l62.7-178.36c1.22-3.04,2.13-6.09,2.74-16.44,0-1.22.61-2.13,1.83-2.13h42.31c1.52,0,1.83.3,2.13,1.83l70.31,195.41c.3,1.83,0,2.74-1.83,2.74ZM361.7,344.04c0,1.83-.61,2.44-2.74,2.44h-31.35c-2.13,0-3.04-.91-3.04-2.74v-145.19c0-1.52.91-2.13,2.43-2.13h32.26c1.83,0,2.44.3,2.44,2.13v145.49ZM343.14,176.02c-12.48,0-20.7-8.52-20.7-21s8.83-21,21-21c13.09,0,20.7,8.83,20.7,21s-8.22,21-21,21Z" style="fill: #f9eff1;"/>
</svg>