<?xml version="1.0" encoding="UTF-8"?>
<svg id="Icons_Black" data-name="Icons Black" xmlns="http://www.w3.org/2000/svg" viewBox="0 0 500 500">
  <path d="M76.77,494.86c-6.84-1.62-13.92-2.6-20.49-4.97-30.77-11.14-51.24-40.43-51.25-73.12-.05-136.12-.02-272.24-.02-408.35v-3.11c1.2-.05,2.27-.14,3.35-.14,136.13,0,272.27-.03,408.4,0,42.82.01,78.07,34.78,78.13,77.55.17,111.47.14,222.94.01,334.41-.04,39.37-30.07,72.62-69.1,77.18-.68.08-1.34.36-2.01.55H76.77ZM355.7,403.58c.65,5.37.92,10.38,1.9,15.26,3.66,18.23,13.16,31.58,32.02,36.47,11.42,2.96,22.96,2.77,34.26-.61,14.19-4.25,24.15-13.42,28.55-27.58,2.09-6.73,2.89-13.98,3.42-21.06.61-8.07-.5-16.11-2.91-23.92-4.44-14.39-14.73-23.51-27.59-30.12-6.99-3.6-14.33-6.5-21.38-10-5.64-2.8-9.98-7.04-10.73-13.63-.46-4.01-.52-8.17-.01-12.17.7-5.49,3.78-9.46,9.46-10.8,9.25-2.17,15.22,1.52,17.26,10.77.74,3.35.99,6.81,1.47,10.24h32.47c.04-7.64-.97-14.9-3.27-21.92-4.61-14.08-13.39-24.49-28.05-28.37-6.41-1.7-13.35-2.22-20.02-2.03-20.62.58-36.41,12.54-42.16,31.54-4.05,13.38-3.58,26.87.41,40.19,3.56,11.87,12.34,19.3,22.68,25.02,7.06,3.91,14.42,7.28,21.7,10.77,15.29,7.32,18.71,20.05,13.58,37.34-1.24,4.18-4.57,6.4-8.85,7.11-9.72,1.63-16.45-2.77-18.64-12.38-.74-3.26-1.03-6.62-1.55-10.13h-34.04ZM344.07,326.53c-.49-4.6-.71-8.88-1.43-13.07-2.47-14.43-8.62-26.63-21.93-34.07-8.78-4.91-18.41-5.82-28.26-5.4-22.16.94-38.71,14.62-43.37,36.1-2.36,10.87-1.87,21.74.66,32.54,2.06,8.8,6.67,16.06,13.82,21.48,4.46,3.38,9.25,6.4,14.16,9.08,6.54,3.57,13.44,6.5,20.02,10,5.98,3.18,10.51,7.82,12.15,14.67,1.6,6.71,1.19,13.41-.78,19.99-1.55,5.19-5.17,7.89-10.53,8.4-9.18.87-14.95-3-17.23-11.95-.87-3.43-1.17-7-1.75-10.61h-33.67c.21,10.38,1.73,20.18,6.21,29.38,5.73,11.78,14.99,19.26,27.66,22.35,11.14,2.72,22.35,2.63,33.38-.55,14.36-4.13,24.19-13.3,29.18-27.42,4.26-12.06,4.28-24.48,2.42-36.96-1.03-6.94-3.21-13.52-7.11-19.43-6.86-10.38-16.9-16.7-27.92-21.76-5.76-2.65-11.58-5.16-17.2-8.07-4.82-2.5-8.51-6.4-9.19-11.95-.56-4.6-.69-9.41.01-13.97,1.02-6.69,5.75-10.06,12.89-10.3,7.24-.24,11.11,2.52,13.14,9.42.37,1.27.66,2.58.85,3.89.39,2.7.69,5.42,1.04,8.22h32.79ZM233.27,332.8c-.39-6.4-.44-12.53-1.2-18.58-2.44-19.56-14.71-33.73-33.15-38.2-13.13-3.18-26.25-2.73-38.98,1.96-14.74,5.44-24.57,15.6-27.97,31.2-1.06,4.86-1.66,9.91-1.69,14.88-.16,27.61-.1,55.22-.05,82.83,0,3.57.24,7.16.67,10.7,2.44,19.86,14.88,33.56,34.35,37.98,7.87,1.79,15.82,2.15,23.8,1.17,30.93-3.82,46.25-26.73,43.59-57.21h-35.72c0,1.62.2,3.07-.04,4.44-.76,4.49-1.17,9.14-2.68,13.39-1.76,4.97-6.08,7.29-11.32,7.51-5.62.23-10.25-1.69-13.21-6.72-2.68-4.56-3.3-9.62-3.31-14.79-.02-24.85-.13-49.7.09-74.55.04-4.72,1.1-9.53,2.37-14.11,1.29-4.66,5.06-7.03,9.79-7.7,9.84-1.39,16.86,4.34,17.9,14.69.37,3.63.41,7.29.61,11.11h36.13Z" style="fill: #482d84; stroke-width: 0px;"/>
</svg>