<?xml version="1.0" encoding="UTF-8"?>
<svg id="Icons_Black" data-name="Icons Black" xmlns="http://www.w3.org/2000/svg" viewBox="0 0 500 500">
  <path d="M195.1,200.18c-27.4.08-49.67,22.4-49.67,49.82s22.27,49.74,49.68,49.82c.05,0,.1,0,.14,0h49.83v-45.6c-.1-1.39-.17-2.8-.17-4.22s.07-2.82.17-4.22v-45.6h-49.83c-.05,0-.1,0-.15,0Z" style="fill: #482d84; stroke-width: 0px;"/>
  <path d="M195.11,309.82c-27.41.08-49.68,22.4-49.68,49.82s22.35,49.83,49.83,49.83,49.83-22.35,49.83-49.83v-49.82h-49.83s-.1,0-.14,0Z" style="fill: #482d84; stroke-width: 0px;"/>
  <path d="M271.67,200.18h-16.58v16.5c4.39-6.52,10.04-12.13,16.58-16.5Z" style="fill: #482d84; stroke-width: 0px;"/>
  <path d="M195.26,190.17h49.66v-99.65h-49.66c-27.47,0-49.83,22.35-49.83,49.83s22.27,49.74,49.67,49.82c.05,0,.1,0,.15,0Z" style="fill: #482d84; stroke-width: 0px;"/>
  <path d="M304.74,200.18h-.31c-26.03.16-47.38,20.38-49.35,45.95v7.74c1.98,25.67,23.49,45.96,49.66,45.96,27.47,0,49.83-22.35,49.83-49.83s-22.27-49.74-49.67-49.82c-.05,0-.1,0-.15,0Z" style="fill: #482d84; stroke-width: 0px;"/>
  <path d="M250,4.92C114.65,4.92,4.92,114.65,4.92,250s109.73,245.08,245.08,245.08,245.08-109.73,245.08-245.08S385.35,4.92,250,4.92ZM364.57,250c0,32.99-26.84,59.83-59.83,59.83-20.66,0-38.91-10.53-49.66-26.5v21.5h0v54.83c0,32.99-26.84,59.83-59.83,59.83s-59.83-26.84-59.83-59.83c0-24.49,14.79-45.58,35.91-54.82-21.12-9.25-35.91-30.34-35.91-54.82s14.79-45.58,35.91-54.82c-21.12-9.25-35.91-30.34-35.91-54.82,0-32.99,26.84-59.83,59.83-59.83h109.49c32.99,0,59.83,26.84,59.83,59.83,0,24.49-14.79,45.58-35.91,54.82,21.12,9.25,35.91,30.34,35.91,54.82Z" style="fill: #482d84; stroke-width: 0px;"/>
  <path d="M304.74,90.53h-49.66v99.65h49.35c.1,0,.2,0,.31,0,.05,0,.1,0,.15,0,27.4-.08,49.67-22.4,49.67-49.82s-22.35-49.83-49.83-49.83Z" style="fill: #482d84; stroke-width: 0px;"/>
</svg>