<?xml version="1.0" encoding="UTF-8"?>
<svg id="Icons_Black" data-name="Icons Black" xmlns="http://www.w3.org/2000/svg" viewBox="0 0 500 500">
  <path d="M3.58,336.63c0-2.89,0-5.78,0-8.66,3.38-4.75,6.1-10.2,10.27-14.12,18.09-17,36.6-33.55,54.94-50.27,4.82-4.4,9.61-8.84,15.27-14.04-1.8-1.33-3.29-2.26-4.57-3.43-21.45-19.51-42.82-39.1-64.33-58.54-4.93-4.46-9.54-9-11.58-15.54,0-2.89,0-5.78,0-8.66,2.41-3.69,4.28-7.93,7.35-10.95,7.99-7.88,16.45-15.27,24.81-22.76,10.02-8.97,19.13-9.34,29.85-1.26,14.98,11.3,29.91,22.68,44.86,34.01,12.51,9.48,25.04,18.94,37.8,28.59,1.88-1.68,3.56-3.13,5.19-4.62,62.8-57.28,125.61-114.54,188.37-171.85,11.05-10.09,23.34-12.33,36.81-5.9,33.28,15.86,66.49,31.89,99.68,47.95,12.17,5.89,18.09,15.87,18.09,29.33.01,109.41,0,218.81.01,328.22,0,13.54-6.09,23.43-18.17,29.3-33.17,16.11-66.39,32.11-99.68,47.96-13.07,6.22-25.22,4.44-36.03-5.42-53.67-48.96-107.34-97.91-161.02-146.86-10.99-10.03-22.01-20.03-33.15-30.16-1.56,1.14-2.86,2.04-4.13,3-26.46,20.06-52.87,40.16-79.37,60.16-9.74,7.35-19.25,6.89-28.37-1.13-4.7-4.13-9.36-8.3-13.88-12.62-6.98-6.67-15.55-11.96-19.03-21.71ZM372.96,138.42c-49.5,37.55-98.08,74.4-147.1,111.59,49.27,37.37,97.83,74.19,147.1,111.56v-223.15Z" style="fill: #482d84; stroke-width: 0px;"/>
</svg>