<?xml version="1.0" encoding="UTF-8"?>
<svg id="Icons_Black" xmlns="http://www.w3.org/2000/svg" version="1.1" viewBox="0 0 500 500">
  <!-- Generator: Adobe Illustrator 29.3.0, SVG Export Plug-In . SVG Version: 2.1.0 Build 146)  -->
  <defs>
    <style>
      .st0 {
        fill: #f9eff1;
      }
    </style>
  </defs>
  <path class="st0" d="M167.9,175.5c-41,.1-74.3,33.5-74.3,74.5s33.3,74.4,74.3,74.5h74.7v-68.2c-.1-2.1-.3-4.2-.3-6.3s.1-4.2.3-6.3v-68.2h-74.7Z"/>
  <path class="st0" d="M167.9,339.5c-41,.1-74.3,33.5-74.3,74.5s33.4,74.5,74.5,74.5,74.5-33.4,74.5-74.5v-74.5h-74.7Z"/>
  <path class="st0" d="M168.1,160.5h74.3V11.5h-74.3c-41.1,0-74.5,33.4-74.5,74.5s33.3,74.4,74.3,74.5h.2Z"/>
  <path class="st0" d="M331.9,175.5h-.5c-38.9.2-70.9,30.5-73.8,68.7v11.6c3,38.4,35.1,68.7,74.3,68.7s74.5-33.4,74.5-74.5-33.3-74.4-74.3-74.5h-.2Z"/>
  <path class="st0" d="M331.9,11.5h-74.3v149h74.5c41-.1,74.3-33.5,74.3-74.5S372.9,11.5,331.9,11.5h0Z"/>
</svg>