<?xml version="1.0" encoding="UTF-8"?>
<svg id="Icons_Black" data-name="Icons Black" xmlns="http://www.w3.org/2000/svg" viewBox="0 0 500 500">
  <path d="M345.57,222.59c-21,0-30.44,16.13-32.87,31.05h45.35c11.57,0,15.52,0,16.74-.3v-2.44c0-8.83-6.09-28.31-29.22-28.31Z" style="fill: #f9eff1;"/>
  <path d="M402.23,5H97.77C46.54,5,5,46.54,5,97.77v304.45c0,51.24,41.54,92.77,92.77,92.77h304.45c51.24,0,92.77-41.54,92.77-92.77V97.77c0-51.24-41.54-92.77-92.77-92.77ZM262.78,346.47h-34.09c-1.52,0-2.44-.61-3.04-1.83l-17.65-50.83h-72.75l-16.74,50.22c-.61,1.83-1.52,2.44-3.35,2.44h-30.44c-1.83,0-2.44-.91-2.13-3.04l62.7-178.36c1.22-3.04,2.13-6.09,2.74-16.44,0-1.22.61-2.13,1.83-2.13h42.31c1.52,0,1.83.3,2.13,1.83l70.31,195.41c.3,1.83,0,2.74-1.83,2.74ZM408.27,276.47c-.3,1.22-.91,1.83-2.44,2.13-4.26.91-16.44,1.22-31.35,1.22h-61.79c.91,21.31,14.91,38.35,45.96,38.35,13.7,0,26.18-2.44,37.74-7.31.91-.61,1.83-.3,1.83,1.22v25.26c0,1.83-.61,2.74-1.83,3.35-11.57,5.48-24.96,8.83-45.66,8.83-55.4,0-75.18-38.96-75.18-76.4,0-42.31,25.57-79.75,71.53-79.75s62.4,35.31,62.4,64.22c0,8.52-.3,15.52-1.22,18.87Z" style="fill: #f9eff1;"/>
  <path d="M171.17,176.94c-4.87,20.39-17.04,56-26.18,83.7h53.27c-6.39-20.09-20.7-62.4-26.78-83.7h-.3Z" style="fill: #f9eff1;"/>
</svg>